<svg version="1.1" viewBox="0.0 0.0 409.53805774278214 192.5275590551181" fill="none" stroke="none" stroke-linecap="square" stroke-miterlimit="10" xmlns:xlink="http://www.w3.org/1999/xlink" xmlns="http://www.w3.org/2000/svg"><clipPath id="p.0"><path d="m0 0l409.53806 0l0 192.52756l-409.53806 0l0 -192.52756z" clip-rule="nonzero"/></clipPath><g clip-path="url(#p.0)"><path fill="#000000" fill-opacity="0.0" d="m0 0l409.53806 0l0 192.52756l-409.53806 0z" fill-rule="evenodd"/><path fill="#ffffff" d="m0.511811 -0.3727034l409.03937 0l0 192.53543l-409.03937 0z" fill-rule="evenodd"/><path stroke="#000000" stroke-width="1.0" stroke-linejoin="round" stroke-linecap="butt" d="m0.511811 -0.3727034l409.03937 0l0 192.53543l-409.03937 0z" fill-rule="evenodd"/><path fill="#cfe2f3" d="m2.7908556 2.2257218l197.25984 0l0 186.58267l-197.25984 0z" fill-rule="evenodd"/><path stroke="#000000" stroke-width="1.0" stroke-linejoin="round" stroke-linecap="butt" d="m2.7908556 2.2257218l197.25984 0l0 186.58267l-197.25984 0z" fill-rule="evenodd"/><path fill="#dae0e5" d="m28.442585 57.93832l55.584972 -36.549515l44.87079 5.6242886l51.567337 -18.744144l11.38504 60.915855l-11.38504 79.659996l-29.466614 -10.307709l-6.6965637 -80.59877l-30.806831 -3.748829l20.091148 32.802773l-20.760498 58.103714l-35.495316 -20.617516l12.05439 -43.11048l-24.108788 -13.119858l-18.081585 38.424973l18.750942 37.48619l-48.88842 10.309814l-9.375473 -66.54015z" fill-rule="evenodd"/><path stroke="#999999" stroke-width="1.0" stroke-linejoin="round" stroke-linecap="butt" d="m28.442585 57.93832l55.584972 -36.549515l44.87079 5.6242886l51.567337 -18.744144l11.38504 60.915855l-11.38504 79.659996l-29.466614 -10.307709l-6.6965637 -80.59877l-30.806831 -3.748829l20.091148 32.802773l-20.760498 58.103714l-35.495316 -20.617516l12.05439 -43.11048l-24.108788 -13.119858l-18.081585 38.424973l18.750942 37.48619l-48.88842 10.309814l-9.375473 -66.54015z" fill-rule="evenodd"/><path fill="#ead6c1" d="m32.27574 71.850365l54.09659 -41.52756l35.279007 4.650917l-29.163803 16.944881l31.282104 30.564308l-15.524918 45.514435l-23.990692 -13.288712l9.173729 -34.220474l-26.577248 -19.26772z" fill-rule="evenodd"/><path stroke="#999999" stroke-width="1.0" stroke-linejoin="round" stroke-linecap="butt" d="m32.27574 71.850365l54.09659 -41.52756l35.279007 4.650917l-29.163803 16.944881l31.282104 30.564308l-15.524918 45.514435l-23.990692 -13.288712l9.173729 -34.220474l-26.577248 -19.26772z" fill-rule="evenodd"/><path fill="#f8cb9d" d="m96.01432 81.1522l-7.525551 30.233597l19.285835 10.629921l11.996277 -37.87139l-15.523064 -15.283463z" fill-rule="evenodd"/><path stroke="#999999" stroke-width="1.0" stroke-linejoin="round" stroke-linecap="butt" d="m96.01432 81.1522l-7.525551 30.233597l19.285835 10.629921l11.996277 -37.87139l-15.523064 -15.283463z" fill-rule="evenodd"/><path fill="#000000" fill-opacity="0.0" d="m108.890594 3.3385828l-23.370079 184.72441" fill-rule="evenodd"/><path stroke="#38761d" stroke-width="2.0" stroke-linejoin="round" stroke-linecap="butt" stroke-dasharray="8.0,6.0" d="m108.890594 3.3385828l-23.370079 184.72441" fill-rule="evenodd"/><path fill="#000000" fill-opacity="0.0" d="m-0.3225315 4.770146l59.37008 0l0 31.275593l-59.37008 0z" fill-rule="evenodd"/><path fill="#000000" d="m15.958718 12.186395l0 0.515625q-1.15625 0.75 -1.6875 1.46875q-0.765625 0.984375 -1.1875 2.546874q-0.515625 1.9375 -0.515625 5.40625q0 3.28125 0.46875 5.09375q0.484375 1.8125 1.3125 2.9375q0.578125 0.765625 1.609375 1.359375l0 0.546875q-2.671875 -0.890625 -4.53125 -3.65625q-1.84375 -2.75 -1.84375 -6.34375q0 -3.53125 1.84375 -6.249999q1.859375 -2.734375 4.53125 -3.625zm9.685334 11.078124l-5.296875 0l-0.625 1.453125q-0.3125 0.734375 -0.3125 1.203125q0 0.640625 0.5 0.9375q0.3125 0.171875 1.484375 0.265625l0 0.40625l-5.0 0l0 -0.40625q0.8125 -0.125 1.328125 -0.671875q0.53125 -0.546875 1.28125 -2.265625l5.375 -11.968749l0.203125 0l5.40625 12.296874q0.78125 1.75 1.28125 2.203125q0.375 0.34375 1.0624981 0.40625l0 0.40625l-7.265623 0l0 -0.40625l0.3125 0q0.859375 0 1.21875 -0.25q0.25 -0.171875 0.25 -0.5q0 -0.203125 -0.078125 -0.421875q-0.015625 -0.09375 -0.328125 -0.828125l-0.796875 -1.859375zm-0.375 -0.828125l-2.234375 -5.15625l-2.296875 5.15625l4.53125 0zm7.595991 9.625l0 -0.5q1.140625 -0.765625 1.6875 -1.484375q0.734375 -1.0 1.171875 -2.546875q0.53125 -1.953125 0.53125 -5.421875q0 -3.265625 -0.484375 -5.078125q-0.484375 -1.812499 -1.3125 -2.937499q-0.5625 -0.765625 -1.59375 -1.359375l0 -0.546875q2.65625 0.890625 4.515625 3.65625q1.859375 2.765624 1.859375 6.343749q0 3.53125 -1.859375 6.25q-1.859375 2.734375 -4.515625 3.625z" fill-rule="nonzero"/><path fill="#000000" fill-opacity="0.0" d="m93.799644 91.09825l15.370079 15.055115" fill-rule="evenodd"/><path stroke="#ff00ff" stroke-width="3.0" stroke-linejoin="round" stroke-linecap="butt" d="m93.799644 91.09825l15.370079 15.055115" fill-rule="evenodd"/><path fill="#000000" fill-opacity="0.0" d="m109.16972 90.6573l-15.496063 15.496063" fill-rule="evenodd"/><path stroke="#ff00ff" stroke-width="3.0" stroke-linejoin="round" stroke-linecap="butt" d="m109.16972 90.6573l-15.496063 15.496063" fill-rule="evenodd"/><path fill="#000000" fill-opacity="0.0" d="m111.50637 75.5367l15.622047 0l0 29.102356l-15.622047 0z" fill-rule="evenodd"/><path fill="#000000" d="m118.615746 81.95169l0 0.4375q-1.09375 0.109375 -1.09375 1.109375q0 0.890625 1.09375 1.125q1.125 -0.953125 2.3125 -1.5625q1.203125 -0.625 1.953125 -0.625q0.84375 0 0.84375 0.78125q0 0.8125 -1.125 1.4375q-1.109375 0.625 -2.78125 0.625q-0.5 0 -1.0 -0.078125q-1.328125 1.296875 -1.328125 2.234375q0 0.46875 0.234375 0.875q1.921875 -0.84375 3.3125 -0.84375q1.609375 0 1.609375 1.046875q0 0.5625 -0.65625 0.9375q-0.65625 0.375 -1.796875 0.375q-1.40625 0 -2.609375 -0.734375q-1.65625 0.65625 -2.609375 1.9375q-0.953125 1.28125 -0.953125 2.625q0 1.109375 0.8125 1.625q0.8125 0.5 2.65625 0.59375q1.0625 0.046875 1.625 0.25q0.578125 0.1875 0.984375 0.828125q0.40625 0.625 0.40625 1.703125q0 1.5625 -0.96875 2.71875q-0.96875 1.171875 -2.4375 1.171875q-1.078125 0 -1.6875 -0.421875q-0.59375 -0.421875 -0.59375 -1.015625q0 -0.390625 0.28125 -0.65625q0.28125 -0.265625 0.796875 -0.265625q0.421875 0 1.109375 0.25q0.984375 0.375 1.390625 0.375q1.109375 0 1.109375 -0.984375q0 -1.0 -1.6875 -1.0l-1.359375 0q-1.53125 0 -2.375 -0.265625q-0.84375 -0.265625 -1.4375 -1.171875q-0.59375 -0.921875 -0.59375 -2.1875q0 -2.09375 1.25 -3.75q1.265625 -1.65625 3.828125 -2.890625q-0.265625 -0.46875 -0.265625 -0.953125q0 -1.21875 1.28125 -2.546875q-1.875 -0.34375 -1.875 -1.484375q0 -0.671875 0.671875 -1.140625q0.6875 -0.484375 1.671875 -0.484375z" fill-rule="nonzero"/><path fill="#f9cb9c" d="m100.16772 81.3688l0 0c0 -3.1310654 2.5382233 -5.6692886 5.6692886 -5.6692886l0 0c1.5035858 0 2.9455948 0.59729767 4.0087967 1.660492c1.0631943 1.0632019 1.660492 2.5052032 1.660492 4.0087967l0 0c0 3.1310654 -2.5382233 5.6692886 -5.6692886 5.6692886l0 0c-3.1310654 0 -5.6692886 -2.5382233 -5.6692886 -5.6692886z" fill-rule="evenodd"/><path stroke="#000000" stroke-width="1.0" stroke-linejoin="round" stroke-linecap="butt" d="m100.16772 81.3688l0 0c0 -3.1310654 2.5382233 -5.6692886 5.6692886 -5.6692886l0 0c1.5035858 0 2.9455948 0.59729767 4.0087967 1.660492c1.0631943 1.0632019 1.660492 2.5052032 1.660492 4.0087967l0 0c0 3.1310654 -2.5382233 5.6692886 -5.6692886 5.6692886l0 0c-3.1310654 0 -5.6692886 -2.5382233 -5.6692886 -5.6692886z" fill-rule="evenodd"/><path fill="#f9cb9c" d="m95.75039 111.82024l0 0c0 -3.1310577 2.538231 -5.6692886 5.6692963 -5.6692886l0 0c1.5035858 0 2.9455948 0.59729767 4.008789 1.6604996c1.0632019 1.0631943 1.6604996 2.5052032 1.6604996 4.008789l0 0c0 3.1310654 -2.538231 5.6692963 -5.6692886 5.6692963l0 0c-3.1310654 0 -5.6692963 -2.538231 -5.6692963 -5.6692963z" fill-rule="evenodd"/><path stroke="#000000" stroke-width="1.0" stroke-linejoin="round" stroke-linecap="butt" d="m95.75039 111.82024l0 0c0 -3.1310577 2.538231 -5.6692886 5.6692963 -5.6692886l0 0c1.5035858 0 2.9455948 0.59729767 4.008789 1.6604996c1.0632019 1.0631943 1.6604996 2.5052032 1.6604996 4.008789l0 0c0 3.1310654 -2.538231 5.6692963 -5.6692886 5.6692963l0 0c-3.1310654 0 -5.6692963 -2.538231 -5.6692963 -5.6692963z" fill-rule="evenodd"/><path fill="#e4c4a8" d="m82.381546 65.58796l0 0c0 -2.6092224 2.1151886 -4.724411 4.7244034 -4.724411l0 0c1.2529907 0 2.4546661 0.49774933 3.3406677 1.3837471c0.88599396 0.8859978 1.3837433 2.0876732 1.3837433 3.340664l0 0c0 2.6092148 -2.1151886 4.7244034 -4.724411 4.7244034l0 0c-2.6092148 0 -4.7244034 -2.1151886 -4.7244034 -4.7244034z" fill-rule="evenodd"/><path stroke="#000000" stroke-width="1.0" stroke-linejoin="round" stroke-linecap="butt" d="m82.381546 65.58796l0 0c0 -2.6092224 2.1151886 -4.724411 4.7244034 -4.724411l0 0c1.2529907 0 2.4546661 0.49774933 3.3406677 1.3837471c0.88599396 0.8859978 1.3837433 2.0876732 1.3837433 3.340664l0 0c0 2.6092148 -2.1151886 4.7244034 -4.724411 4.7244034l0 0c-2.6092148 0 -4.7244034 -2.1151886 -4.7244034 -4.7244034z" fill-rule="evenodd"/><path fill="#e4c4a8" d="m70.97209 60.36486l0 0c0 -2.6092224 2.1151962 -4.724411 4.724411 -4.724411l0 0c1.2529907 0 2.4546661 0.49774933 3.34066 1.3837471c0.8860016 0.8859978 1.3837509 2.0876732 1.3837509 3.340664l0 0c0 2.6092186 -2.1151886 4.724411 -4.724411 4.724411l0 0c-2.6092148 0 -4.724411 -2.1151924 -4.724411 -4.724411z" fill-rule="evenodd"/><path stroke="#000000" stroke-width="1.0" stroke-linejoin="round" stroke-linecap="butt" d="m70.97209 60.36486l0 0c0 -2.6092224 2.1151962 -4.724411 4.724411 -4.724411l0 0c1.2529907 0 2.4546661 0.49774933 3.34066 1.3837471c0.8860016 0.8859978 1.3837509 2.0876732 1.3837509 3.340664l0 0c0 2.6092186 -2.1151886 4.724411 -4.724411 4.724411l0 0c-2.6092148 0 -4.724411 -2.1151924 -4.724411 -4.724411z" fill-rule="evenodd"/><path fill="#e4c4a8" d="m88.190056 36.215252l0 0c0 -2.0873756 1.6921539 -3.7795258 3.7795258 -3.7795258l0 0c1.0023956 0 1.9637299 0.39819717 2.6725311 1.1069984c0.70880127 0.70879745 1.1070023 1.6701355 1.1070023 2.6725273l0 0c0 2.0873756 -1.6921539 3.7795296 -3.7795334 3.7795296l0 0c-2.0873718 0 -3.7795258 -1.6921539 -3.7795258 -3.7795296z" fill-rule="evenodd"/><path stroke="#000000" stroke-width="1.0" stroke-linejoin="round" stroke-linecap="butt" d="m88.190056 36.215252l0 0c0 -2.0873756 1.6921539 -3.7795258 3.7795258 -3.7795258l0 0c1.0023956 0 1.9637299 0.39819717 2.6725311 1.1069984c0.70880127 0.70879745 1.1070023 1.6701355 1.1070023 2.6725273l0 0c0 2.0873756 -1.6921539 3.7795296 -3.7795334 3.7795296l0 0c-2.0873718 0 -3.7795258 -1.6921539 -3.7795258 -3.7795296z" fill-rule="evenodd"/><path fill="#6d9eeb" d="m70.97154 85.77168l0 0c0 -2.6092148 2.1151886 -4.724411 4.724411 -4.724411l0 0c1.2529907 0 2.4546585 0.49774933 3.34066 1.3837509c0.8860016 0.88599396 1.3837509 2.0876694 1.3837509 3.34066l0 0c0 2.6092224 -2.1151962 4.724411 -4.724411 4.724411l0 0c-2.6092224 0 -4.724411 -2.1151886 -4.724411 -4.724411z" fill-rule="evenodd"/><path stroke="#000000" stroke-width="1.0" stroke-linejoin="round" stroke-linecap="butt" d="m70.97154 85.77168l0 0c0 -2.6092148 2.1151886 -4.724411 4.724411 -4.724411l0 0c1.2529907 0 2.4546585 0.49774933 3.34066 1.3837509c0.8860016 0.88599396 1.3837509 2.0876694 1.3837509 3.34066l0 0c0 2.6092224 -2.1151962 4.724411 -4.724411 4.724411l0 0c-2.6092224 0 -4.724411 -2.1151886 -4.724411 -4.724411z" fill-rule="evenodd"/><path fill="#6d9eeb" d="m64.75632 98.40423l0 0c0 -2.6092148 2.1151886 -4.724411 4.724411 -4.724411l0 0c1.2529907 0 2.4546661 0.49774933 3.34066 1.3837509c0.8860016 0.8860016 1.3837509 2.0876694 1.3837509 3.34066l0 0c0 2.6092224 -2.1151886 4.724411 -4.724411 4.724411l0 0c-2.6092224 0 -4.724411 -2.1151886 -4.724411 -4.724411z" fill-rule="evenodd"/><path stroke="#000000" stroke-width="1.0" stroke-linejoin="round" stroke-linecap="butt" d="m64.75632 98.40423l0 0c0 -2.6092148 2.1151886 -4.724411 4.724411 -4.724411l0 0c1.2529907 0 2.4546661 0.49774933 3.34066 1.3837509c0.8860016 0.8860016 1.3837509 2.0876694 1.3837509 3.34066l0 0c0 2.6092224 -2.1151886 4.724411 -4.724411 4.724411l0 0c-2.6092224 0 -4.724411 -2.1151886 -4.724411 -4.724411z" fill-rule="evenodd"/><path fill="#6d9eeb" d="m64.75632 116.0394l0 0c0 -2.6092148 2.1151886 -4.724411 4.724411 -4.724411l0 0c1.2529907 0 2.4546661 0.49774933 3.34066 1.3837509c0.8860016 0.8860016 1.3837509 2.0876694 1.3837509 3.34066l0 0c0 2.6092224 -2.1151886 4.724411 -4.724411 4.724411l0 0c-2.6092224 0 -4.724411 -2.1151886 -4.724411 -4.724411z" fill-rule="evenodd"/><path stroke="#000000" stroke-width="1.0" stroke-linejoin="round" stroke-linecap="butt" d="m64.75632 116.0394l0 0c0 -2.6092148 2.1151886 -4.724411 4.724411 -4.724411l0 0c1.2529907 0 2.4546661 0.49774933 3.34066 1.3837509c0.8860016 0.8860016 1.3837509 2.0876694 1.3837509 3.34066l0 0c0 2.6092224 -2.1151886 4.724411 -4.724411 4.724411l0 0c-2.6092224 0 -4.724411 -2.1151886 -4.724411 -4.724411z" fill-rule="evenodd"/><path fill="#d1bfb3" d="m111.507645 121.27037l0 0c0 -2.0873718 1.6921463 -3.7795258 3.7795258 -3.7795258l0 0c1.002388 0 1.9637299 0.398201 2.6725311 1.1069946c0.70879364 0.70880127 1.1069946 1.6701355 1.1069946 2.6725311l0 0c0 2.0873795 -1.6921539 3.7795258 -3.7795258 3.7795258l0 0c-2.0873795 0 -3.7795258 -1.6921463 -3.7795258 -3.7795258z" fill-rule="evenodd"/><path stroke="#000000" stroke-width="1.0" stroke-linejoin="round" stroke-linecap="butt" d="m111.507645 121.27037l0 0c0 -2.0873718 1.6921463 -3.7795258 3.7795258 -3.7795258l0 0c1.002388 0 1.9637299 0.398201 2.6725311 1.1069946c0.70879364 0.70880127 1.1069946 1.6701355 1.1069946 2.6725311l0 0c0 2.0873795 -1.6921539 3.7795258 -3.7795258 3.7795258l0 0c-2.0873795 0 -3.7795258 -1.6921463 -3.7795258 -3.7795258z" fill-rule="evenodd"/><path fill="#6d9eeb" d="m124.39872 65.58796l0 0c0 -2.0873795 1.6921463 -3.7795296 3.7795181 -3.7795296l0 0c1.0023956 0 1.9637451 0.39819717 2.6725311 1.1069984c0.70880127 0.70879745 1.1070099 1.6701355 1.1070099 2.6725311l0 0c0 2.0873718 -1.6921539 3.7795258 -3.779541 3.7795258l0 0c-2.0873718 0 -3.7795181 -1.6921539 -3.7795181 -3.7795258z" fill-rule="evenodd"/><path stroke="#000000" stroke-width="1.0" stroke-linejoin="round" stroke-linecap="butt" d="m124.39872 65.58796l0 0c0 -2.0873795 1.6921463 -3.7795296 3.7795181 -3.7795296l0 0c1.0023956 0 1.9637451 0.39819717 2.6725311 1.1069984c0.70880127 0.70879745 1.1070099 1.6701355 1.1070099 2.6725311l0 0c0 2.0873718 -1.6921539 3.7795258 -3.779541 3.7795258l0 0c-2.0873718 0 -3.7795181 -1.6921539 -3.7795181 -3.7795258z" fill-rule="evenodd"/><path fill="#6d9eeb" d="m128.63493 107.70082l0 0c0 -2.0873795 1.6921539 -3.7795334 3.7795258 -3.7795334l0 0c1.0023956 0 1.9637299 0.398201 2.6725311 1.1070023c0.70880127 0.70879364 1.1070099 1.6701355 1.1070099 2.6725311l0 0c0 2.0873718 -1.6921539 3.7795258 -3.779541 3.7795258l0 0c-2.0873718 0 -3.7795258 -1.6921539 -3.7795258 -3.7795258z" fill-rule="evenodd"/><path stroke="#000000" stroke-width="1.0" stroke-linejoin="round" stroke-linecap="butt" d="m128.63493 107.70082l0 0c0 -2.0873795 1.6921539 -3.7795334 3.7795258 -3.7795334l0 0c1.0023956 0 1.9637299 0.398201 2.6725311 1.1070023c0.70880127 0.70879364 1.1070099 1.6701355 1.1070099 2.6725311l0 0c0 2.0873718 -1.6921539 3.7795258 -3.779541 3.7795258l0 0c-2.0873718 0 -3.7795258 -1.6921539 -3.7795258 -3.7795258z" fill-rule="evenodd"/><path fill="#6d9eeb" d="m140.27719 9.595831l0 0c0 -1.5655317 1.2691193 -2.8346462 2.8346405 -2.8346462l0 0c0.75180054 0 1.4728088 0.2986493 2.0044098 0.83024836c0.53160095 0.5315995 0.830246 1.252603 0.830246 2.0043979l0 0c0 1.5655308 -1.2691193 2.8346453 -2.8346558 2.8346453l0 0c-1.5655212 0 -2.8346405 -1.2691145 -2.8346405 -2.8346453z" fill-rule="evenodd"/><path stroke="#000000" stroke-width="1.0" stroke-linejoin="round" stroke-linecap="butt" d="m140.27719 9.595831l0 0c0 -1.5655317 1.2691193 -2.8346462 2.8346405 -2.8346462l0 0c0.75180054 0 1.4728088 0.2986493 2.0044098 0.83024836c0.53160095 0.5315995 0.830246 1.252603 0.830246 2.0043979l0 0c0 1.5655308 -1.2691193 2.8346453 -2.8346558 2.8346453l0 0c-1.5655212 0 -2.8346405 -1.2691145 -2.8346405 -2.8346453z" fill-rule="evenodd"/><path fill="#6d9eeb" d="m29.159082 42.829426l0 0c0 -1.5655327 1.2691154 -2.8346443 2.8346462 -2.8346443l0 0c0.7517967 0 1.4727974 0.29864883 2.0043983 0.830246c0.53159714 0.53160095 0.830246 1.2526054 0.830246 2.0043983l0 0c0 1.5655327 -1.2691116 2.8346443 -2.8346443 2.8346443l0 0c-1.5655308 0 -2.8346462 -1.2691116 -2.8346462 -2.8346443z" fill-rule="evenodd"/><path stroke="#000000" stroke-width="1.0" stroke-linejoin="round" stroke-linecap="butt" d="m29.159082 42.829426l0 0c0 -1.5655327 1.2691154 -2.8346443 2.8346462 -2.8346443l0 0c0.7517967 0 1.4727974 0.29864883 2.0043983 0.830246c0.53159714 0.53160095 0.830246 1.2526054 0.830246 2.0043983l0 0c0 1.5655327 -1.2691116 2.8346443 -2.8346443 2.8346443l0 0c-1.5655308 0 -2.8346462 -1.2691116 -2.8346462 -2.8346443z" fill-rule="evenodd"/><path fill="#6d9eeb" d="m31.458296 170.6562l0 0c0 -1.5655365 1.2691135 -2.8346558 2.8346462 -2.8346558l0 0c0.7517929 0 1.4727974 0.29866028 2.0043983 0.830246c0.53159714 0.53160095 0.830246 1.2526093 0.830246 2.0044098l0 0c0 1.5655212 -1.2691116 2.8346405 -2.8346443 2.8346405l0 0c-1.5655327 0 -2.8346462 -1.2691193 -2.8346462 -2.8346405z" fill-rule="evenodd"/><path stroke="#000000" stroke-width="1.0" stroke-linejoin="round" stroke-linecap="butt" d="m31.458296 170.6562l0 0c0 -1.5655365 1.2691135 -2.8346558 2.8346462 -2.8346558l0 0c0.7517929 0 1.4727974 0.29866028 2.0043983 0.830246c0.53159714 0.53160095 0.830246 1.2526093 0.830246 2.0044098l0 0c0 1.5655212 -1.2691116 2.8346405 -2.8346443 2.8346405l0 0c-1.5655327 0 -2.8346462 -1.2691193 -2.8346462 -2.8346405z" fill-rule="evenodd"/><path fill="#6d9eeb" d="m187.45567 146.36748l0 0c0 -1.5655212 1.2691193 -2.8346405 2.8346405 -2.8346405l0 0c0.75180054 0 1.4727936 0.29864502 2.0043945 0.830246c0.53160095 0.53160095 0.83026123 1.2526093 0.83026123 2.0043945l0 0c0 1.5655365 -1.2691193 2.8346558 -2.8346558 2.8346558l0 0c-1.5655212 0 -2.8346405 -1.2691193 -2.8346405 -2.8346558z" fill-rule="evenodd"/><path stroke="#000000" stroke-width="1.0" stroke-linejoin="round" stroke-linecap="butt" d="m187.45567 146.36748l0 0c0 -1.5655212 1.2691193 -2.8346405 2.8346405 -2.8346405l0 0c0.75180054 0 1.4727936 0.29864502 2.0043945 0.830246c0.53160095 0.53160095 0.83026123 1.2526093 0.83026123 2.0043945l0 0c0 1.5655365 -1.2691193 2.8346558 -2.8346558 2.8346558l0 0c-1.5655212 0 -2.8346405 -1.2691193 -2.8346405 -2.8346558z" fill-rule="evenodd"/><path fill="#6d9eeb" d="m116.48454 164.98691l0 0c0 -1.5655365 1.2691116 -2.8346405 2.8346481 -2.8346405l0 0c0.7517929 0 1.4727936 0.29864502 2.0043945 0.830246c0.53160095 0.53160095 0.830246 1.252594 0.830246 2.0043945l0 0c0 1.5655365 -1.2691116 2.8346405 -2.8346405 2.8346405l0 0c-1.5655365 0 -2.8346481 -1.269104 -2.8346481 -2.8346405z" fill-rule="evenodd"/><path stroke="#000000" stroke-width="1.0" stroke-linejoin="round" stroke-linecap="butt" d="m116.48454 164.98691l0 0c0 -1.5655365 1.2691116 -2.8346405 2.8346481 -2.8346405l0 0c0.7517929 0 1.4727936 0.29864502 2.0043945 0.830246c0.53160095 0.53160095 0.830246 1.252594 0.830246 2.0043945l0 0c0 1.5655365 -1.2691116 2.8346405 -2.8346405 2.8346405l0 0c-1.5655365 0 -2.8346481 -1.269104 -2.8346481 -2.8346405z" fill-rule="evenodd"/><path fill="#d1bfb3" d="m37.127502 135.4961l0 0c0 -1.5655365 1.2691154 -2.8346405 2.8346481 -2.8346405l0 0c0.7517929 0 1.4727974 0.29864502 2.0043983 0.830246c0.53159714 0.53160095 0.830246 1.252594 0.830246 2.0043945l0 0c0 1.5655365 -1.2691116 2.8346405 -2.8346443 2.8346405l0 0c-1.5655327 0 -2.8346481 -1.269104 -2.8346481 -2.8346405z" fill-rule="evenodd"/><path stroke="#000000" stroke-width="1.0" stroke-linejoin="round" stroke-linecap="butt" d="m37.127502 135.4961l0 0c0 -1.5655365 1.2691154 -2.8346405 2.8346481 -2.8346405l0 0c0.7517929 0 1.4727974 0.29864502 2.0043983 0.830246c0.53159714 0.53160095 0.830246 1.252594 0.830246 2.0043945l0 0c0 1.5655365 -1.2691116 2.8346405 -2.8346443 2.8346405l0 0c-1.5655327 0 -2.8346481 -1.269104 -2.8346481 -2.8346405z" fill-rule="evenodd"/><path fill="#d1bfb3" d="m23.48971 86.8688l0 0c0 -1.5655289 1.2691135 -2.8346481 2.8346443 -2.8346481l0 0c0.7517948 0 1.4727993 0.29865265 2.0043983 0.8302536c0.53159904 0.5315933 0.8302479 1.2526016 0.8302479 2.0043945l0 0c0 1.5655289 -1.2691135 2.8346481 -2.8346462 2.8346481l0 0c-1.5655308 0 -2.8346443 -1.2691193 -2.8346443 -2.8346481z" fill-rule="evenodd"/><path stroke="#000000" stroke-width="1.0" stroke-linejoin="round" stroke-linecap="butt" d="m23.48971 86.8688l0 0c0 -1.5655289 1.2691135 -2.8346481 2.8346443 -2.8346481l0 0c0.7517948 0 1.4727993 0.29865265 2.0043983 0.8302536c0.53159904 0.5315933 0.8302479 1.2526016 0.8302479 2.0043945l0 0c0 1.5655289 -1.2691135 2.8346481 -2.8346462 2.8346481l0 0c-1.5655308 0 -2.8346443 -1.2691193 -2.8346443 -2.8346481z" fill-rule="evenodd"/><path fill="#d1bfb3" d="m159.64456 83.88192l0 0c0 -1.5655289 1.2691193 -2.8346481 2.8346558 -2.8346481l0 0c0.7517853 0 1.4727936 0.29865265 2.0043945 0.8302536c0.53160095 0.5315933 0.830246 1.2526016 0.830246 2.0043945l0 0c0 1.5655289 -1.2691193 2.8346481 -2.8346405 2.8346481l0 0c-1.5655365 0 -2.8346558 -1.2691193 -2.8346558 -2.8346481z" fill-rule="evenodd"/><path stroke="#000000" stroke-width="1.0" stroke-linejoin="round" stroke-linecap="butt" d="m159.64456 83.88192l0 0c0 -1.5655289 1.2691193 -2.8346481 2.8346558 -2.8346481l0 0c0.7517853 0 1.4727936 0.29865265 2.0043945 0.8302536c0.53160095 0.5315933 0.830246 1.2526016 0.830246 2.0043945l0 0c0 1.5655289 -1.2691193 2.8346481 -2.8346405 2.8346481l0 0c-1.5655365 0 -2.8346558 -1.2691193 -2.8346558 -2.8346481z" fill-rule="evenodd"/><path fill="#d1bfb3" d="m166.07764 27.220503l0 0c0 -1.5655327 1.2691193 -2.8346462 2.8346405 -2.8346462l0 0c0.75180054 0 1.4728088 0.29864883 2.0043945 0.8302479c0.53160095 0.53159904 0.83026123 1.2526035 0.83026123 2.0043983l0 0c0 1.5655308 -1.2691193 2.8346443 -2.8346558 2.8346443l0 0c-1.5655212 0 -2.8346405 -1.2691135 -2.8346405 -2.8346443z" fill-rule="evenodd"/><path stroke="#000000" stroke-width="1.0" stroke-linejoin="round" stroke-linecap="butt" d="m166.07764 27.220503l0 0c0 -1.5655327 1.2691193 -2.8346462 2.8346405 -2.8346462l0 0c0.75180054 0 1.4728088 0.29864883 2.0043945 0.8302479c0.53160095 0.53159904 0.83026123 1.2526035 0.83026123 2.0043983l0 0c0 1.5655308 -1.2691193 2.8346443 -2.8346558 2.8346443l0 0c-1.5655212 0 -2.8346405 -1.2691135 -2.8346405 -2.8346443z" fill-rule="evenodd"/><path fill="#cfe2f3" d="m209.12682 2.2388132l197.25984 0l0 186.58267l-197.25984 0z" fill-rule="evenodd"/><path stroke="#000000" stroke-width="1.0" stroke-linejoin="round" stroke-linecap="butt" d="m209.12682 2.2388132l197.25984 0l0 186.58267l-197.25984 0z" fill-rule="evenodd"/><path fill="#dae0e5" d="m234.77855 57.954086l55.584976 -36.549515l44.87079 5.6242886l51.56732 -18.744144l11.38504 60.915855l-11.38504 79.659996l-29.466614 -10.307709l-6.6965637 -80.59877l-30.806824 -3.748829l20.091156 32.802776l-20.760498 58.103706l-35.49533 -20.617508l12.054382 -43.11049l-24.108765 -13.119858l-18.081604 38.424973l18.750946 37.486206l-48.888412 10.309799l-9.375473 -66.540146z" fill-rule="evenodd"/><path stroke="#999999" stroke-width="1.0" stroke-linejoin="round" stroke-linecap="butt" d="m234.77855 57.954086l55.584976 -36.549515l44.87079 5.6242886l51.56732 -18.744144l11.38504 60.915855l-11.38504 79.659996l-29.466614 -10.307709l-6.6965637 -80.59877l-30.806824 -3.748829l20.091156 32.802776l-20.760498 58.103706l-35.49533 -20.617508l12.054382 -43.11049l-24.108765 -13.119858l-18.081604 38.424973l18.750946 37.486206l-48.888412 10.309799l-9.375473 -66.540146z" fill-rule="evenodd"/><path fill="#ead6c1" d="m238.6117 71.86613l54.09659 -41.527557l35.279022 4.650919l-29.163818 16.944881l31.282104 30.564304l-15.524902 45.514435l-23.990692 -13.288712l9.173706 -34.220474l-26.57724 -19.267715z" fill-rule="evenodd"/><path stroke="#999999" stroke-width="1.0" stroke-linejoin="round" stroke-linecap="butt" d="m238.6117 71.86613l54.09659 -41.527557l35.279022 4.650919l-29.163818 16.944881l31.282104 30.564304l-15.524902 45.514435l-23.990692 -13.288712l9.173706 -34.220474l-26.57724 -19.267715z" fill-rule="evenodd"/><path fill="#f8cb9d" d="m302.35028 81.16796l-7.525543 30.233597l19.285828 10.629921l11.996277 -37.87139l-15.523071 -15.283463z" fill-rule="evenodd"/><path stroke="#999999" stroke-width="1.0" stroke-linejoin="round" stroke-linecap="butt" d="m302.35028 81.16796l-7.525543 30.233597l19.285828 10.629921l11.996277 -37.87139l-15.523071 -15.283463z" fill-rule="evenodd"/><path fill="#000000" fill-opacity="0.0" d="m406.25543 132.51445l-197.48033 30.929138" fill-rule="evenodd"/><path stroke="#38761d" stroke-width="2.0" stroke-linejoin="round" stroke-linecap="butt" stroke-dasharray="8.0,6.0" d="m406.25543 132.51445l-197.48033 30.929138" fill-rule="evenodd"/><path fill="#000000" fill-opacity="0.0" d="m206.01343 4.785911l59.370087 0l0 31.275589l-59.370087 0z" fill-rule="evenodd"/><path fill="#000000" d="m222.29468 12.202159l0 0.515625q-1.15625 0.75 -1.6875 1.46875q-0.765625 0.984375 -1.1875 2.546876q-0.515625 1.9375 -0.515625 5.40625q0 3.28125 0.46875 5.09375q0.484375 1.8125 1.3125 2.9375q0.578125 0.765625 1.609375 1.359375l0 0.546875q-2.671875 -0.890625 -4.53125 -3.65625q-1.84375 -2.75 -1.84375 -6.34375q0 -3.53125 1.84375 -6.250001q1.859375 -2.734375 4.53125 -3.625zm10.341583 7.390626q2.140625 0.5 3.0 1.203125q1.234375 1.015625 1.234375 2.609375q0 1.703125 -1.359375 2.796875q-1.671875 1.34375 -4.859375 1.34375l-7.625 0l0 -0.40625q1.046875 0 1.40625 -0.1875q0.375 -0.203125 0.53125 -0.515625q0.15625 -0.3125 0.15625 -1.53125l0 -9.734376q0 -1.203125 -0.15625 -1.515625q-0.15625 -0.328125 -0.53125 -0.515625q-0.375 -0.1875 -1.40625 -0.1875l0 -0.40625l7.203125 0q2.578125 0 3.640625 0.46875q1.078125 0.453125 1.6875 1.375q0.625 0.90625 0.625 1.921876q0 1.09375 -0.78125 1.9375q-0.78125 0.84375 -2.765625 1.34375zm-4.03125 -0.296875q1.578125 0 2.3125 -0.34375q0.75 -0.359375 1.140625 -1.0q0.40625 -0.65625 0.40625 -1.640625q0 -1.000001 -0.390625 -1.625001q-0.390625 -0.640625 -1.125 -0.96875q-0.71875 -0.34375 -2.34375 -0.328125l0 5.906251zm0 0.859375l0 4.8125l0 0.546875q0 0.609375 0.296875 0.921875q0.3125 0.296875 0.90625 0.296875q0.875 0 1.625 -0.390625q0.75 -0.40625 1.140625 -1.140625q0.40625 -0.75 0.40625 -1.671875q0 -1.046875 -0.484375 -1.875q-0.484375 -0.84375 -1.34375 -1.171875q-0.84375 -0.34375 -2.546875 -0.328125zm9.345917 11.921875l0 -0.5q1.140625 -0.765625 1.6875 -1.484375q0.734375 -1.0 1.171875 -2.546875q0.53125 -1.953125 0.53125 -5.421875q0 -3.265625 -0.484375 -5.078125q-0.484375 -1.812501 -1.3125 -2.937501q-0.5625 -0.765625 -1.59375 -1.359375l0 -0.546875q2.65625 0.890625 4.515625 3.65625q1.859375 2.765626 1.859375 6.343751q0 3.53125 -1.859375 6.25q-1.859375 2.734375 -4.515625 3.625z" fill-rule="nonzero"/><path fill="#000000" fill-opacity="0.0" d="m300.1356 91.11401l15.370087 15.055122" fill-rule="evenodd"/><path stroke="#ff00ff" stroke-width="3.0" stroke-linejoin="round" stroke-linecap="butt" d="m300.1356 91.11401l15.370087 15.055122" fill-rule="evenodd"/><path fill="#000000" fill-opacity="0.0" d="m315.50568 90.67307l-15.496063 15.496063" fill-rule="evenodd"/><path stroke="#ff00ff" stroke-width="3.0" stroke-linejoin="round" stroke-linecap="butt" d="m315.50568 90.67307l-15.496063 15.496063" fill-rule="evenodd"/><path fill="#000000" fill-opacity="0.0" d="m317.84232 75.55246l15.62207 0l0 29.102364l-15.62207 0z" fill-rule="evenodd"/><path fill="#000000" d="m324.9517 81.96746l0 0.4375q-1.09375 0.109375 -1.09375 1.109375q0 0.890625 1.09375 1.125q1.125 -0.953125 2.3125 -1.5625q1.203125 -0.625 1.953125 -0.625q0.84375 0 0.84375 0.78125q0 0.8125 -1.125 1.4375q-1.109375 0.625 -2.78125 0.625q-0.5 0 -1.0 -0.078125q-1.328125 1.296875 -1.328125 2.234375q0 0.46875 0.234375 0.875q1.921875 -0.84375 3.3125 -0.84375q1.609375 0 1.609375 1.046875q0 0.5625 -0.65625 0.9375q-0.65625 0.375 -1.796875 0.375q-1.40625 0 -2.609375 -0.734375q-1.65625 0.65625 -2.609375 1.9375q-0.953125 1.28125 -0.953125 2.625q0 1.109375 0.8125 1.625q0.8125 0.5 2.65625 0.59375q1.0625 0.046875 1.625 0.25q0.578125 0.1875 0.984375 0.828125q0.40625 0.625 0.40625 1.703125q0 1.5625 -0.96875 2.71875q-0.96875 1.171875 -2.4375 1.171875q-1.078125 0 -1.6875 -0.421875q-0.59375 -0.421875 -0.59375 -1.015625q0 -0.390625 0.28125 -0.65625q0.28125 -0.265625 0.796875 -0.265625q0.421875 0 1.109375 0.25q0.984375 0.375 1.390625 0.375q1.109375 0 1.109375 -0.984375q0 -1.0 -1.6875 -1.0l-1.359375 0q-1.53125 0 -2.375 -0.265625q-0.84375 -0.265625 -1.4375 -1.171875q-0.59375 -0.921875 -0.59375 -2.1875q0 -2.09375 1.25 -3.75q1.265625 -1.65625 3.828125 -2.890625q-0.265625 -0.46875 -0.265625 -0.953125q0 -1.21875 1.28125 -2.546875q-1.875 -0.34375 -1.875 -1.484375q0 -0.671875 0.671875 -1.140625q0.6875 -0.484375 1.671875 -0.484375z" fill-rule="nonzero"/><path fill="#d1bfb3" d="m226.76749 74.67197l0 0c0 -2.0873795 1.6921539 -3.7795334 3.7795258 -3.7795334l0 0c1.0023956 0 1.9637299 0.398201 2.6725311 1.1070023c0.70880127 0.70879364 1.1069946 1.6701355 1.1069946 2.6725311l0 0c0 2.0873718 -1.6921539 3.7795258 -3.7795258 3.7795258l0 0c-2.0873718 0 -3.7795258 -1.6921539 -3.7795258 -3.7795258z" fill-rule="evenodd"/><path stroke="#000000" stroke-width="1.0" stroke-linejoin="round" stroke-linecap="butt" d="m226.76749 74.67197l0 0c0 -2.0873795 1.6921539 -3.7795334 3.7795258 -3.7795334l0 0c1.0023956 0 1.9637299 0.398201 2.6725311 1.1070023c0.70880127 0.70879364 1.1069946 1.6701355 1.1069946 2.6725311l0 0c0 2.0873718 -1.6921539 3.7795258 -3.7795258 3.7795258l0 0c-2.0873718 0 -3.7795258 -1.6921539 -3.7795258 -3.7795258z" fill-rule="evenodd"/><path fill="#d1bfb3" d="m224.78323 109.26514l0 0c0 -2.0873718 1.6921539 -3.7795258 3.7795258 -3.7795258l0 0c1.0023956 0 1.9637299 0.398201 2.6725311 1.1069946c0.70880127 0.70880127 1.1069946 1.6701431 1.1069946 2.6725311l0 0c0 2.0873795 -1.6921539 3.7795334 -3.7795258 3.7795334l0 0c-2.0873718 0 -3.7795258 -1.6921539 -3.7795258 -3.7795334z" fill-rule="evenodd"/><path stroke="#000000" stroke-width="1.0" stroke-linejoin="round" stroke-linecap="butt" d="m224.78323 109.26514l0 0c0 -2.0873718 1.6921539 -3.7795258 3.7795258 -3.7795258l0 0c1.0023956 0 1.9637299 0.398201 2.6725311 1.1069946c0.70880127 0.70880127 1.1069946 1.6701431 1.1069946 2.6725311l0 0c0 2.0873795 -1.6921539 3.7795334 -3.7795258 3.7795334l0 0c-2.0873718 0 -3.7795258 -1.6921539 -3.7795258 -3.7795334z" fill-rule="evenodd"/><path fill="#d1bfb3" d="m234.51552 140.01054l0 0c0 -2.0873718 1.6921539 -3.7795258 3.7795258 -3.7795258l0 0c1.0023956 0 1.9637299 0.39819336 2.6725311 1.1069946c0.70880127 0.70880127 1.1069946 1.6701355 1.1069946 2.6725311l0 0c0 2.0873718 -1.6921539 3.7795258 -3.7795258 3.7795258l0 0c-2.0873718 0 -3.7795258 -1.6921539 -3.7795258 -3.7795258z" fill-rule="evenodd"/><path stroke="#000000" stroke-width="1.0" stroke-linejoin="round" stroke-linecap="butt" d="m234.51552 140.01054l0 0c0 -2.0873718 1.6921539 -3.7795258 3.7795258 -3.7795258l0 0c1.0023956 0 1.9637299 0.39819336 2.6725311 1.1069946c0.70880127 0.70880127 1.1069946 1.6701355 1.1069946 2.6725311l0 0c0 2.0873718 -1.6921539 3.7795258 -3.7795258 3.7795258l0 0c-2.0873718 0 -3.7795258 -1.6921539 -3.7795258 -3.7795258z" fill-rule="evenodd"/><path fill="#d1bfb3" d="m348.71762 31.734955l0 0c0 -2.0873756 1.6921387 -3.7795277 3.7795105 -3.7795277l0 0c1.0024109 0 1.9637451 0.39819908 2.6725464 1.1069984c0.70880127 0.70879936 1.1069946 1.6701374 1.1069946 2.6725292l0 0c0 2.0873756 -1.6921692 3.7795296 -3.779541 3.7795296l0 0c-2.0873718 0 -3.7795105 -1.6921539 -3.7795105 -3.7795296z" fill-rule="evenodd"/><path stroke="#000000" stroke-width="1.0" stroke-linejoin="round" stroke-linecap="butt" d="m348.71762 31.734955l0 0c0 -2.0873756 1.6921387 -3.7795277 3.7795105 -3.7795277l0 0c1.0024109 0 1.9637451 0.39819908 2.6725464 1.1069984c0.70880127 0.70879936 1.1069946 1.6701374 1.1069946 2.6725292l0 0c0 2.0873756 -1.6921692 3.7795296 -3.779541 3.7795296l0 0c-2.0873718 0 -3.7795105 -1.6921539 -3.7795105 -3.7795296z" fill-rule="evenodd"/><path fill="#d1bfb3" d="m371.79898 58.26514l0 0c0 -2.0873756 1.6921387 -3.7795296 3.779541 -3.7795296l0 0c1.0023804 0 1.9637146 0.398201 2.6725159 1.1069984c0.70880127 0.70879745 1.1069946 1.6701355 1.1069946 2.6725311l0 0c0 2.0873756 -1.6921387 3.7795258 -3.7795105 3.7795258l0 0c-2.0874023 0 -3.779541 -1.6921501 -3.779541 -3.7795258z" fill-rule="evenodd"/><path stroke="#000000" stroke-width="1.0" stroke-linejoin="round" stroke-linecap="butt" d="m371.79898 58.26514l0 0c0 -2.0873756 1.6921387 -3.7795296 3.779541 -3.7795296l0 0c1.0023804 0 1.9637146 0.398201 2.6725159 1.1069984c0.70880127 0.70879745 1.1069946 1.6701355 1.1069946 2.6725311l0 0c0 2.0873756 -1.6921387 3.7795258 -3.7795105 3.7795258l0 0c-2.0874023 0 -3.779541 -1.6921501 -3.779541 -3.7795258z" fill-rule="evenodd"/><path fill="#d1bfb3" d="m383.84097 92.336006l0 0c0 -2.0873795 1.6921692 -3.7795258 3.779541 -3.7795258l0 0c1.0023804 0 1.9637146 0.39819336 2.6725159 1.1069946c0.70880127 0.70880127 1.1069946 1.6701355 1.1069946 2.6725311l0 0c0 2.0873718 -1.6921387 3.7795258 -3.7795105 3.7795258l0 0c-2.0873718 0 -3.779541 -1.6921539 -3.779541 -3.7795258z" fill-rule="evenodd"/><path stroke="#000000" stroke-width="1.0" stroke-linejoin="round" stroke-linecap="butt" d="m383.84097 92.336006l0 0c0 -2.0873795 1.6921692 -3.7795258 3.779541 -3.7795258l0 0c1.0023804 0 1.9637146 0.39819336 2.6725159 1.1069946c0.70880127 0.70880127 1.1069946 1.6701355 1.1069946 2.6725311l0 0c0 2.0873718 -1.6921387 3.7795258 -3.7795105 3.7795258l0 0c-2.0873718 0 -3.779541 -1.6921539 -3.779541 -3.7795258z" fill-rule="evenodd"/><path fill="#d1bfb3" d="m379.1612 126.729706l0 0c0 -2.0873718 1.6921387 -3.7795258 3.7795105 -3.7795258l0 0c1.0024109 0 1.9637451 0.398201 2.6725464 1.1069946c0.70880127 0.70880127 1.1069946 1.6701355 1.1069946 2.6725311l0 0c0 2.0873718 -1.6921692 3.7795258 -3.779541 3.7795258l0 0c-2.0873718 0 -3.7795105 -1.6921539 -3.7795105 -3.7795258z" fill-rule="evenodd"/><path stroke="#000000" stroke-width="1.0" stroke-linejoin="round" stroke-linecap="butt" d="m379.1612 126.729706l0 0c0 -2.0873718 1.6921387 -3.7795258 3.7795105 -3.7795258l0 0c1.0024109 0 1.9637451 0.398201 2.6725464 1.1069946c0.70880127 0.70880127 1.1069946 1.6701355 1.1069946 2.6725311l0 0c0 2.0873718 -1.6921692 3.7795258 -3.779541 3.7795258l0 0c-2.0873718 0 -3.7795105 -1.6921539 -3.7795105 -3.7795258z" fill-rule="evenodd"/><path fill="#6d9eeb" d="m269.29898 25.12078l0 0c0 -2.0873737 1.6921387 -3.7795258 3.779541 -3.7795258l0 0c1.0023804 0 1.9637146 0.39819908 2.6725159 1.1069965c0.70880127 0.70879936 1.1069946 1.6701374 1.1069946 2.6725292l0 0c0 2.0873756 -1.6921387 3.7795277 -3.7795105 3.7795277l0 0c-2.0874023 0 -3.779541 -1.692152 -3.779541 -3.7795277z" fill-rule="evenodd"/><path stroke="#000000" stroke-width="1.0" stroke-linejoin="round" stroke-linecap="butt" d="m269.29898 25.12078l0 0c0 -2.0873737 1.6921387 -3.7795258 3.779541 -3.7795258l0 0c1.0023804 0 1.9637146 0.39819908 2.6725159 1.1069965c0.70880127 0.70879936 1.1069946 1.6701374 1.1069946 2.6725292l0 0c0 2.0873756 -1.6921387 3.7795277 -3.7795105 3.7795277l0 0c-2.0874023 0 -3.779541 -1.692152 -3.779541 -3.7795277z" fill-rule="evenodd"/><path fill="#6d9eeb" d="m261.73993 167.6116l0 0c0 -2.087387 1.6921387 -3.779541 3.7795105 -3.779541l0 0c1.0024109 0 1.9637451 0.39820862 2.6725464 1.1070099c0.70880127 0.708786 1.1069946 1.6701355 1.1069946 2.6725311l0 0c0 2.0873718 -1.6921387 3.7795258 -3.779541 3.7795258l0 0c-2.0873718 0 -3.7795105 -1.6921539 -3.7795105 -3.7795258z" fill-rule="evenodd"/><path stroke="#000000" stroke-width="1.0" stroke-linejoin="round" stroke-linecap="butt" d="m261.73993 167.6116l0 0c0 -2.087387 1.6921387 -3.779541 3.7795105 -3.779541l0 0c1.0024109 0 1.9637451 0.39820862 2.6725464 1.1070099c0.70880127 0.708786 1.1069946 1.6701355 1.1069946 2.6725311l0 0c0 2.0873718 -1.6921387 3.7795258 -3.779541 3.7795258l0 0c-2.0873718 0 -3.7795105 -1.6921539 -3.7795105 -3.7795258z" fill-rule="evenodd"/><path fill="#6d9eeb" d="m300.37772 178.57484l0 0c0 -2.0873718 1.6921692 -3.7795258 3.779541 -3.7795258l0 0c1.0023804 0 1.9637146 0.39820862 2.6725159 1.1069946c0.70880127 0.70880127 1.1069946 1.6701508 1.1069946 2.6725311l0 0c0 2.087387 -1.6921387 3.7795258 -3.7795105 3.7795258l0 0c-2.0873718 0 -3.779541 -1.6921387 -3.779541 -3.7795258z" fill-rule="evenodd"/><path stroke="#000000" stroke-width="1.0" stroke-linejoin="round" stroke-linecap="butt" d="m300.37772 178.57484l0 0c0 -2.0873718 1.6921692 -3.7795258 3.779541 -3.7795258l0 0c1.0023804 0 1.9637146 0.39820862 2.6725159 1.1069946c0.70880127 0.70880127 1.1069946 1.6701508 1.1069946 2.6725311l0 0c0 2.087387 -1.6921387 3.7795258 -3.7795105 3.7795258l0 0c-2.0873718 0 -3.779541 -1.6921387 -3.779541 -3.7795258z" fill-rule="evenodd"/><path fill="#6d9eeb" d="m335.4407 172.6326l0 0c0 -2.087387 1.6921692 -3.779541 3.779541 -3.779541l0 0c1.0023804 0 1.9637146 0.39820862 2.6725159 1.1070099c0.70880127 0.70880127 1.1069946 1.6701355 1.1069946 2.6725311l0 0c0 2.0873718 -1.6921387 3.7795258 -3.7795105 3.7795258l0 0c-2.0873718 0 -3.779541 -1.6921539 -3.779541 -3.7795258z" fill-rule="evenodd"/><path stroke="#000000" stroke-width="1.0" stroke-linejoin="round" stroke-linecap="butt" d="m335.4407 172.6326l0 0c0 -2.087387 1.6921692 -3.779541 3.779541 -3.779541l0 0c1.0023804 0 1.9637146 0.39820862 2.6725159 1.1070099c0.70880127 0.70880127 1.1069946 1.6701355 1.1069946 2.6725311l0 0c0 2.0873718 -1.6921387 3.7795258 -3.7795105 3.7795258l0 0c-2.0873718 0 -3.779541 -1.6921539 -3.779541 -3.7795258z" fill-rule="evenodd"/><path fill="#6d9eeb" d="m364.23862 150.88194l0 0c0 -2.087387 1.6921387 -3.779541 3.7795105 -3.779541l0 0c1.0024109 0 1.9637451 0.39820862 2.6725464 1.1070099c0.70880127 0.70880127 1.1069946 1.6701355 1.1069946 2.6725311l0 0c0 2.0873718 -1.6921387 3.7795258 -3.779541 3.7795258l0 0c-2.0873718 0 -3.7795105 -1.6921539 -3.7795105 -3.7795258z" fill-rule="evenodd"/><path stroke="#000000" stroke-width="1.0" stroke-linejoin="round" stroke-linecap="butt" d="m364.23862 150.88194l0 0c0 -2.087387 1.6921387 -3.779541 3.7795105 -3.779541l0 0c1.0024109 0 1.9637451 0.39820862 2.6725464 1.1070099c0.70880127 0.70880127 1.1069946 1.6701355 1.1069946 2.6725311l0 0c0 2.0873718 -1.6921387 3.7795258 -3.779541 3.7795258l0 0c-2.0873718 0 -3.7795105 -1.6921539 -3.7795105 -3.7795258z" fill-rule="evenodd"/><path fill="#6d9eeb" d="m315.5037 18.506609l0 0c0 -2.0873756 1.6921692 -3.7795277 3.779541 -3.7795277l0 0c1.0023804 0 1.9637146 0.39819908 2.6725159 1.1069975c0.70880127 0.7087984 1.1070251 1.6701365 1.1070251 2.6725302l0 0c0 2.0873756 -1.6921692 3.7795277 -3.779541 3.7795277l0 0c-2.0873718 0 -3.779541 -1.692152 -3.779541 -3.7795277z" fill-rule="evenodd"/><path stroke="#000000" stroke-width="1.0" stroke-linejoin="round" stroke-linecap="butt" d="m315.5037 18.506609l0 0c0 -2.0873756 1.6921692 -3.7795277 3.779541 -3.7795277l0 0c1.0023804 0 1.9637146 0.39819908 2.6725159 1.1069975c0.70880127 0.7087984 1.1070251 1.6701365 1.1070251 2.6725302l0 0c0 2.0873756 -1.6921692 3.7795277 -3.779541 3.7795277l0 0c-2.0873718 0 -3.779541 -1.692152 -3.779541 -3.7795277z" fill-rule="evenodd"/></g></svg>